# xmcd
#
# Track frame offsets: 
#        150
#        28260
#        44692
#        58322
#        74477
#        95077
#        109897
#        124047
#
# Disc length: 1878 seconds
#
# Revision: 0
# Processed by: cddbd v1.4PL0 Copyright (c) Steve Scherf et al.
# Submitted via: ExactAudioCopy v0.90b3
#
DISCID=7e075408
DTITLE=Leroy Hutson - The Man!
DYEAR=1973
DGENRE=Soul
TTITLE0=Can't Say Enough About Mom
TTITLE1=Gotta Move - Gotta Groove
TTITLE2=Ella Weez
TTITLE3=Give This Love A Try
TTITLE4=The Ghetto '74
TTITLE5=After The Fight
TTITLE6=Could This Be Love
TTITLE7=Dudley Do-Right
EXTD=
EXTT0=
EXTT1=
EXTT2=
EXTT3=
EXTT4=
EXTT5=
EXTT6=
EXTT7=
PLAYORDER=
